<?xml version="1.0" encoding="UTF-8" standalone="no"?>
<svg
   version="1.0"
   width="1634.3508pt"
   height="362pt"
   viewBox="0 0 1634.3508 361.99999"
   preserveAspectRatio="xMidYMid meet"
   id="svg68"
   xmlns="http://www.w3.org/2000/svg"
   xmlns:svg="http://www.w3.org/2000/svg">
  <defs
     id="defs72" />
  <path
     d="m 0,46.700003 v 46.8 L 43.1,146 c 23.6,28.9 43.8,53.3 44.7,54.2 1.6,1.6 4,-3.3 42.2,-84.7 22.3,-47.599997 40.7,-86.499997 41,-86.499997 0.3,0 1.2,1.2 2.1,2.6 l 1.6,2.6 1.2,-3 c 1.1,-2.6 1,-3.4 -0.5,-5.7 l -1.7,-2.7 -1.3,2.4 c -0.7,1.2 -1.5,2.3 -1.9,2.3 -0.3,0 -4.8,-6.1 -9.9,-13.500003 L 151.4,0.5 75.7,0.2 0,0 Z"
     id="path2"
     style="fill:#457b9d;fill-opacity:1;stroke:none;stroke-width:0.1" />
  <path
     d="m 159,0.6 c 0,0.6 14.1,21.400003 14.6,21.400003 0.3,0 3.4,-6.500003 8,-16.800003 L 184,0 H 171.5 C 164.6,0 159,0.3 159,0.6 Z"
     id="path4"
     style="fill:#457b9d;fill-opacity:1;stroke:none;stroke-width:0.1" />
  <path
     d="m 184.2,13.8 c -3.4,7.500003 -6.2,14.000003 -6.2,14.400003 0,0.5 53.8,79.499997 55.5,81.599997 0.3,0.3 58,-105.3 59,-108.1 C 293.2,0.1 290.4,0 241.9,0 l -51.4,0.1 z"
     id="path6"
     style="fill:#457b9d;fill-opacity:1;stroke:none;stroke-width:0.1" />
  <path
     d="m 274.5,47.800003 c -14.3,26.2 -28.4,52.1 -31.3,57.499997 l -5.4,9.9 -2.2,-2.1 -2.3,-2.1 -1.1,2.5 c -1,2.1 -0.9,3 0.5,5.1 l 1.6,2.6 1.5,-2.7 c 0.7,-1.5 1.8,-2.3 2.2,-1.9 0.5,0.5 20.7,29.9 45,65.4 24.3,35.5 44.7,65.1 45.4,65.8 1,1 4.6,-4.9 17.4,-28.4 L 362,189.7 V 94.800003 0 h -30.7 -30.8 z"
     id="path8"
     style="fill:#457b9d;fill-opacity:1;stroke:none;stroke-width:0.1" />
  <path
     d="m 134,121 c -22.2,47.3 -40.6,86 -40.9,86 -0.3,0 -1.2,-1 -2,-2.2 l -1.3,-2.2 -1.5,2.8 c -1.5,2.8 -1.5,2.8 -3.3,1 -1,-1.1 -20.5,-24.8 -43.4,-52.7 L 0,102.9 V 232.4 362 h 7.3 7.3 L 49.8,286.7 C 69.2,245.4 85.5,210.8 86,210 c 0.8,-1.3 1.2,-1.1 2.6,0.9 l 1.7,2.4 1.4,-2.7 c 0.8,-1.5 1.7,-2.4 2.1,-2.2 0.5,0.3 12.2,14.4 26.2,31.5 19.5,23.8 25.7,30.8 26.6,29.8 1.6,-1.8 83.4,-152.4 83.4,-153.6 0,-1 -52,-77.399997 -54.4,-79.899997 -1,-1 -9.2,15.7 -41.6,84.799997 z"
     id="path10"
     style="fill:#1d3557;fill-opacity:1;stroke:none;stroke-width:0.1" />
  <path
     d="m 233.7,122.7 c -0.8,1.4 -61.4,112.8 -72.5,133.3 -5.8,10.7 -10.7,19.7 -11,20 -0.2,0.3 -1.2,-0.5 -2.1,-1.7 l -1.8,-2.2 -1.9,2.4 -1.9,2.4 L 117,245.5 C 103,228.2 91.3,214.1 91,214.1 90.7,214 79.1,238.2 65.3,267.7 51.4,297.3 35.8,330.6 30.6,341.7 L 21.1,362 h 37.8 37.8 l 22.1,-40.8 c 12.2,-22.4 22.6,-41.4 23.1,-42.2 0.8,-1.2 1.3,-1.1 3.1,0.5 2.2,1.9 2.9,1.6 4.4,-2 0.5,-1.4 -0.1,-2.1 37.1,43.3 l 33.7,41.2 24.1,-0.2 24.1,-0.3 28.2,-51.8 c 15.5,-28.6 28.6,-52.3 29.2,-52.9 0.6,-0.6 1.5,-0.2 2.5,1.2 l 1.5,2.2 1.4,-2.1 c 0.7,-1.1 1.6,-2.1 2,-2.1 0.3,0 6.9,9.1 14.5,20.2 l 13.8,20.1 0.3,-23.7 c 0.1,-13.1 0.1,-34 0,-46.6 l -0.3,-22.9 -13.9,25.4 c -7.7,14 -14.3,25.5 -14.7,25.5 -0.4,0 -1.4,-0.9 -2.3,-2.1 -1.4,-2.1 -1.4,-2.1 -2.9,0.6 l -1.4,2.7 -5.5,-7.8 c -3,-4.4 -23.4,-34 -45.3,-65.9 -21.8,-31.9 -40,-58.4 -40.5,-58.8 -0.4,-0.5 -1,-0.5 -1.3,0 z"
     id="path12"
     style="fill:#1d3557;fill-opacity:1;stroke:none;stroke-width:0.1" />
  <path
     d="m 305,306.7 c -13.4,24.7 -25.7,47.2 -27.3,50 l -2.9,5.3 h 43.6 43.6 v -27.3 -27.2 l -8.7,-12.7 c -4.9,-7 -11.9,-17.3 -15.7,-22.8 -3.7,-5.5 -7.2,-10 -7.6,-10 -0.4,0 -11.7,20.1 -25,44.7 z"
     id="path14"
     style="fill:#1d3557;fill-opacity:1;stroke:none;stroke-width:0.1" />
  <path
     d="m 125.1,322.1 c -11.7,21.5 -21.1,39.3 -20.8,39.5 0.2,0.2 24.6,0.3 54.1,0.2 L 212.2,361.5 180,322.2 C 162.2,300.7 147.4,283 147.1,283 c -0.4,0 -10.3,17.6 -22,39.1 z"
     id="path16"
     style="fill:#1d3557;fill-opacity:1;stroke:none;stroke-width:0.1" />
  <g
     id="g1561"
     transform="matrix(1.6991748,0,0,1.6991748,-355.42874,-109.72881)">
    <path
       d="m 629.8,124.3 c -3.3,1.6 -5.3,6.8 -5.3,13.7 v 6.1 h -3.1 -3 l 0.3,5.2 c 0.2,3.8 0.7,5.3 1.8,5.4 0.8,0.1 2.1,0.2 2.8,0.3 0.9,0.1 1.2,5.6 1.2,24.1 v 24 h 6.5 6.5 l 0.2,-24.2 0.3,-24.3 4.3,0.1 4.2,0.1 v -5.4 -5.3 h -4.5 -4.5 v -4.3 c 0,-5.2 1.3,-6.7 5.7,-6.7 3.3,0 3.3,0 3.3,-5 v -5 l -7.2,0.1 c -4,0 -8.3,0.5 -9.5,1.1 z"
       id="path18"
       style="fill:#000000;fill-opacity:1;stroke:none;stroke-width:0.1" />
    <path
       d="m 659.5,132.1 v 6 h 7 7 v -6 -6 h -7 -7 z"
       id="path20"
       style="fill:#000000;fill-opacity:1;stroke:none;stroke-width:0.1" />
    <path
       d="m 684,132.1 v 6 h 6.8 6.7 v -6 -6 h -6.8 -6.8 z"
       id="path22"
       style="fill:#000000;fill-opacity:1;stroke:none;stroke-width:0.1" />
    <path
       d="m 510.5,165.1 v 38 h 6 6 l 0.2,-24.8 0.3,-24.7 8.1,24.5 8,24.5 h 6.5 6.4 v -37.5 -37.5 l -6.2,-0.3 -6.3,-0.3 -0.1,24.3 -0.1,24.3 -8,-24.3 -7.9,-24.2 h -6.5 -6.4 z"
       id="path24"
       style="fill:#000000;fill-opacity:1;stroke:none;stroke-width:0.1" />
    <path
       d="m 1073.6,163.3 c -4,20 -7.4,37.1 -7.7,38 -0.5,1.6 0.3,1.8 6.4,1.8 h 7 l 1.2,-8 1.2,-8 h 8.4 8.3 l 1.1,5.7 c 2.2,11.4 1.2,10.3 8.8,10.3 h 6.8 l -7.6,-36.4 c -4.3,-20 -8,-37.1 -8.3,-38 -0.5,-1.3 -2.3,-1.6 -9.5,-1.6 h -8.9 z m 19.8,-4.1 c 1.7,9.2 3.1,16.9 3.1,17.3 0,0.3 -3,0.6 -6.6,0.6 -6.4,0 -6.6,-0.1 -6.1,-2.3 0.3,-1.2 1.5,-7.8 2.7,-14.7 2.5,-15.3 3.1,-18.2 3.5,-17.8 0.2,0.2 1.7,7.8 3.4,16.9 z"
       id="path26"
       style="fill:#000000;fill-opacity:1;stroke:none;stroke-width:0.1" />
    <path
       d="m 1129.5,165 v 38.1 h 16 c 17.4,0 21.8,-0.9 24.1,-5.2 0.9,-1.5 1.3,-6.7 1.3,-15.5 0.1,-12.4 0,-13.3 -2.2,-15.6 -1.9,-2 -2,-2.5 -0.8,-3 2.4,-0.9 3.3,-6.2 3.1,-17.9 -0.3,-17.3 -1.3,-18.1 -24.7,-18.6 l -16.8,-0.4 z m 26.8,-27.1 c 0.9,0.6 1.2,3.6 1,11.3 l -0.3,10.4 h -7 -7 l -0.2,-10 c -0.2,-5.5 -0.1,-10.6 0.2,-11.3 0.5,-1.4 11.2,-1.7 13.3,-0.4 z m 0.7,43.7 v 11 h -7 -7 l -0.2,-11.3 -0.2,-11.3 7.2,0.3 7.2,0.3 z"
       id="path28"
       style="fill:#000000;fill-opacity:1;stroke:none;stroke-width:0.1" />
    <path
       d="m 810.5,139.1 c 0,4.9 -0.1,5 -3,5 -3,0 -3,0 -3,5.6 0,4.7 0.3,5.5 1.8,5.3 4.3,-0.4 4.2,-0.7 4.2,20.1 0,12 0.4,20.8 1.1,22.3 1.6,3.6 4.8,5 12.7,5.5 l 7.2,0.5 v -5.6 -5.6 l -3.7,-0.3 -3.8,-0.3 -0.3,-17.9 c -0.2,-12.3 0.1,-18.2 0.9,-18.6 0.6,-0.4 2.4,-0.6 4,-0.4 2.9,0.4 2.9,0.3 2.9,-5.1 v -5.5 h -4 -4 v -5 -5 h -6.5 -6.5 z"
       id="path30"
       style="fill:#000000;fill-opacity:1;stroke:none;stroke-width:0.1" />
    <path
       d="m 1009.5,139.1 c 0,4.9 -0.1,5 -3,5 -3,0 -3,0 -3,5.6 0,4.7 0.3,5.5 1.8,5.3 4.3,-0.4 4.2,-0.7 4.2,20.1 0,12 0.4,20.8 1.1,22.3 1.6,3.6 4.8,5 12.7,5.5 l 7.2,0.5 v -5.6 -5.6 l -3.7,-0.3 -3.8,-0.3 -0.3,-17.9 c -0.2,-12.3 0.1,-18.2 0.9,-18.6 0.6,-0.4 2.4,-0.6 4,-0.4 2.9,0.4 2.9,0.3 2.9,-5.1 v -5.5 h -4 -4 v -5 -5 h -6.5 -6.5 z"
       id="path32"
       style="fill:#000000;fill-opacity:1;stroke:none;stroke-width:0.1" />
    <path
       d="m 566.5,144.6 c 0,0.2 2.6,11.6 5.9,25.2 3.2,13.6 6.2,26.3 6.6,28 0.6,2.9 1,3.3 4,3.3 3.3,0 3.4,0 2.3,3 -1.3,3.7 -3.5,5 -8.7,5 h -4.1 v 5 5 h 6.9 c 7.7,0 12.1,-2.2 15.2,-7.5 1.5,-2.5 14.9,-62.1 14.9,-66.2 0,-0.9 -1.7,-1.3 -6.4,-1.3 -5.8,0 -6.4,0.2 -6.9,2.2 -0.3,1.3 -2,11.2 -3.8,22 -1.9,10.9 -3.6,19.2 -4,18.5 -0.4,-0.6 -2.4,-10.5 -4.4,-22 l -3.8,-20.7 h -6.9 c -3.7,0 -6.8,0.2 -6.8,0.5 z"
       id="path34"
       style="fill:#000000;fill-opacity:1;stroke:none;stroke-width:0.1" />
    <path
       d="m 667,144.9 c -3.2,1.1 -5.1,2.5 -6.4,4.9 -1.5,3 -1.5,44.3 0,47.7 1.9,4.2 6.5,5.6 17.8,5.6 11.2,0 16.1,-1.4 18.3,-5.2 1,-1.7 1.3,-7.8 1.3,-24.3 0,-25 -0.4,-26.5 -7.2,-28.4 -4.1,-1.2 -20.5,-1.3 -23.8,-0.3 z m 17.3,11.1 c 1.1,3.1 0.7,35 -0.5,36.2 -0.6,0.6 -3.2,0.9 -5.9,0.7 l -4.9,-0.3 -0.3,-18 c -0.1,-9.8 0,-18.5 0.2,-19.2 0.4,-0.8 2.4,-1.3 5.6,-1.3 4.1,0 5.2,0.4 5.8,1.9 z"
       id="path36"
       style="fill:#000000;fill-opacity:1;stroke:none;stroke-width:0.1" />
    <path
       d="m 714.5,173.6 v 29.5 h 7 7 v -21.8 c 0,-24.7 0.1,-24.9 7.6,-25.5 l 3.9,-0.4 0.3,-5.6 0.3,-5.7 h -3.2 c -2.3,0 -4,0.9 -6.4,3.4 l -3.2,3.4 0.1,-3.2 0.1,-3.1 -6.7,-0.3 -6.8,-0.3 z"
       id="path38"
       style="fill:#000000;fill-opacity:1;stroke:none;stroke-width:0.1" />
    <path
       d="m 760.9,145.5 c -6.2,2.7 -6.4,3.8 -6.4,27.8 0,13.3 0.4,22.6 1.1,24.1 1.9,4.2 4.7,5.1 16.4,5.5 16,0.5 20.5,-2.3 20.5,-13.1 v -4.7 h -6.4 -6.5 l -0.3,3.7 -0.3,3.8 h -5.5 -5.5 l -0.3,-7.8 -0.3,-7.7 h 12.6 12.5 v -12.8 c 0,-14.3 -0.7,-16.4 -6.6,-18.8 -4.4,-1.8 -20.8,-1.8 -25,0 z m 18.4,16.3 0.3,7.3 h -6.1 -6 v -6.8 c 0,-3.8 0.3,-7.2 0.7,-7.6 0.4,-0.4 3,-0.6 5.8,-0.4 l 5,0.3 z"
       id="path40"
       style="fill:#000000;fill-opacity:1;stroke:none;stroke-width:0.1" />
    <path
       d="m 849.8,145.5 c -5.5,2.5 -5.8,3.9 -5.8,28.1 0,24.9 0.4,26.3 7.1,28.5 4.7,1.6 12.9,0.8 15.4,-1.5 1.9,-1.8 2,-1.7 2,0.3 0,2 0.5,2.2 6.5,2.2 h 6.5 V 173.6 144.1 H 875 c -6.3,0 -6.5,0.1 -6.5,2.6 v 2.6 l -1.9,-2.3 c -2.3,-2.9 -11.9,-3.7 -16.8,-1.5 z m 17.9,11 c 0.4,0.6 0.8,8.3 0.8,17.1 0,8.8 -0.4,16.5 -0.8,17.1 -1.1,1.7 -5,2.7 -7.8,2 l -2.4,-0.6 v -18.5 -18.4 l 2.8,-0.3 c 3.5,-0.4 6.5,0.2 7.4,1.6 z"
       id="path42"
       style="fill:#000000;fill-opacity:1;stroke:none;stroke-width:0.1" />
    <path
       d="m 903.8,145.5 c -5.1,2.3 -5.7,4.5 -6.1,22.4 -0.5,21.4 0.1,26.7 3.8,30.4 2.6,2.5 3.5,2.8 9.6,2.8 5.6,0 7.2,-0.4 9.1,-2.2 l 2.3,-2.1 v 4.5 c 0,7.9 0.1,7.8 -11.6,7.8 h -10.4 v 5 5 H 914 c 8.3,0 14.4,-0.5 16,-1.2 5.3,-2.4 5.5,-3.9 5.5,-40.3 V 144.1 H 929 c -6.3,0 -6.5,0.1 -6.5,2.6 v 2.6 l -1.9,-2.3 c -2.3,-2.9 -11.9,-3.7 -16.8,-1.5 z m 17.9,11 c 0.4,0.6 0.8,7.9 0.8,16.2 0,17.5 -0.4,18.7 -6.5,18.2 l -4,-0.3 -0.3,-17.7 -0.2,-17.7 2.7,-0.3 c 3.6,-0.4 6.6,0.2 7.5,1.6 z"
       id="path44"
       style="fill:#000000;fill-opacity:1;stroke:none;stroke-width:0.1" />
    <path
       d="m 958.9,145.5 c -6.2,2.7 -6.4,3.8 -6.4,27.8 0,13.3 0.4,22.6 1.1,24.1 1.9,4.2 4.7,5.1 16.4,5.5 16,0.5 20.5,-2.3 20.5,-13.1 v -4.7 h -6.4 -6.5 l -0.3,3.7 -0.3,3.8 h -5.5 -5.5 l -0.3,-7.8 -0.3,-7.7 h 12.6 12.5 v -12.8 c 0,-14.3 -0.7,-16.4 -6.6,-18.8 -4.4,-1.8 -20.8,-1.8 -25,0 z m 18.4,16.3 0.3,7.3 h -6.1 -6 v -6.8 c 0,-3.8 0.3,-7.2 0.7,-7.6 0.4,-0.4 3,-0.6 5.8,-0.4 l 5,0.3 z"
       id="path46"
       style="fill:#000000;fill-opacity:1;stroke:none;stroke-width:0.1" />
  </g>
</svg>
